<?xml version="1.0" encoding="utf-8"?>
<!-- Generator: Adobe Illustrator 27.9.0, SVG Export Plug-In . SVG Version: 6.00 Build 0)  -->
<svg version="1.1" id="Layer_1" xmlns="http://www.w3.org/2000/svg" xmlns:xlink="http://www.w3.org/1999/xlink" x="0px" y="0px"
	 viewBox="0 0 1200 900" style="enable-background:new 0 0 1200 900;" xml:space="preserve">
<style type="text/css">
	.st0{fill:#FFFFFF;}
	.st1{fill:#D3E5F1;}
	.st2{fill:#4B8AB7;}
	.st3{fill:#B7D2E5;}
	.st4{fill:#9ABFDB;}
	.st5{fill:#5A95BD;}
	.st6{fill:#507087;}
	.st7{fill:#6F8EAA;}
	.st8{fill:#FEEDED;}
	.st9{fill:#F2B263;}
	.st10{fill:#FFE989;}
	.st11{fill:#D9DBEE;}
	.st12{fill:#A8B9D5;}
	.st13{fill:#995C7D;}
	.st14{fill:#7A3D5F;}
	.st15{fill:#4EB3AF;}
	.st16{fill:#F27792;}
	.st17{fill:#D74C6B;}
	.st18{fill:#403E55;}
	.st19{fill:#78DBBE;}
	.st20{fill:#FB947B;}
	.st21{fill:#E46758;}
	.st22{fill:#191B2A;}
	.st23{fill:#4994F0;}
	.st24{fill:#002539;}
	.st25{fill:#E27E6A;}
	.st26{fill:#302E46;}
	.st27{fill:#FCFEFF;}
	.st28{fill:#F6977A;}
</style>
<rect class="st0" width="1200" height="900"/>
<g>
	<g>
		<path class="st1" d="M1119.54,492.07c-6.64-87.47-56.25-164.7-111.31-230.08c-26.08-30.96-53.55-61.05-82.02-89.83
			c-31.74-32.08-65.01-61.37-105.12-82.58c-40.04-21.18-87.04-29.39-131.72-21.02c-48.92,9.17-91.88,33.5-133.66,59.39
			c-83.98,52.05-167.21,105.34-250.79,158.02c-36.73,23.15-74.42,45.32-109.34,71.19c-17.97,13.32-34.48,27.98-50.02,44.06
			c-15.48,16.02-27.91,33.57-38.79,52.98c-23.63,42.18-29.84,92.04-26.25,139.65c3.62,47.89,19.27,94.66,38.13,138.54
			c5.39,12.54,40.03,77.96,48.78,81.56c6.79,2.79,807.76,20.21,828.03,9.52c22-11.6,40.69-28.23,53.73-49.53
			c11.65-19.02,20.17-39.03,27.42-60.05c7.57-21.97,14.98-44.03,21.55-66.33C1113.12,596.76,1123.59,545.3,1119.54,492.07z"/>
		<ellipse class="st2" cx="597.1" cy="816.14" rx="515.75" ry="44.54"/>
	</g>
	<g>
		<path class="st3" d="M918,729.25h-27.5c-3.09,0-5.62-2.53-5.62-5.62v-27.5c0-3.09,2.53-5.62,5.62-5.62H918
			c3.09,0,5.62,2.53,5.62,5.62v27.5C923.62,726.72,921.09,729.25,918,729.25z"/>
		<g>
			<circle class="st4" cx="904.25" cy="709.87" r="10.43"/>
			<g>
				<path class="st3" d="M898.52,709.87c0-0.69,0.56-1.24,1.24-1.24s1.24,0.56,1.24,1.24c0,0.69-0.56,1.24-1.24,1.24
					S898.52,710.56,898.52,709.87z"/>
				<circle class="st3" cx="908.74" cy="709.87" r="1.24"/>
			</g>
		</g>
	</g>
	<g>
		<path class="st3" d="M868.03,729.25h-27.5c-3.09,0-5.62-2.53-5.62-5.62v-27.5c0-3.09,2.53-5.62,5.62-5.62h27.5
			c3.09,0,5.62,2.53,5.62,5.62v27.5C873.65,726.72,871.12,729.25,868.03,729.25z"/>
		<g>
			<circle class="st5" cx="854.28" cy="709.87" r="10.43"/>
			<g>
				<path class="st5" d="M850.08,711.08c0.55-0.13,0.96-0.62,0.96-1.21c0-0.69-0.56-1.24-1.24-1.24c-0.39,0-0.73,0.18-0.95,0.45
					c-0.02-0.03-0.03-0.05-0.05-0.08c-1.02-1.49-3.23,0.25-2.21,1.74c10.27,14.96,1.04,36.81-14.77,43.53
					c-19.08,8.11-41.81-1.97-52.79-18.46c-3.06-4.59-5.28-9.82-6.18-15.28c-0.98-5.96,0-11.9,0.16-17.88
					c0.15-5.5-0.62-10.69-3.41-15.51c-2.65-4.58-6.32-8.52-8.36-13.46c-4.32-10.45-1.81-22.28-0.07-33.02
					c1.75-10.78,2.49-21.61,1.77-32.52c-1.6-24.29-9.78-47.99-23.53-68.08c-1.02-1.49-3.23,0.25-2.21,1.74
					c13.25,19.36,21.12,42.17,22.87,65.55c0.88,11.77-0.12,23.33-2.02,34.95c-1.82,11.12-3.83,23.34,1.25,33.93
					c2.39,4.99,6.37,9.01,8.77,13.99c2.87,5.95,2.16,12.52,1.74,18.89c-0.38,5.64-0.25,11.1,1.36,16.56
					c1.54,5.19,4.14,10.05,7.41,14.35c12.03,15.8,34.62,24.79,53.71,17.09C849.5,750.19,859.42,727.64,850.08,711.08z"/>
				<path class="st5" d="M857.52,709.87c0-0.69,0.56-1.24,1.24-1.24c0.69,0,1.24,0.56,1.24,1.24c0,0.69-0.56,1.24-1.24,1.24
					C858.08,711.12,857.52,710.56,857.52,709.87z"/>
			</g>
		</g>
	</g>
	<g>
		<g>
			<g>
				<path class="st6" d="M205.84,763.4L205.84,763.4c-2.87,0-5.23-2.35-5.23-5.23v-72.93c0-2.87,2.35-5.23,5.23-5.23l0,0
					c2.87,0,5.23,2.35,5.23,5.23v72.93C211.06,761.05,208.71,763.4,205.84,763.4z"/>
				<path class="st7" d="M203.6,763.4L203.6,763.4c-2.87,0-5.23-2.35-5.23-5.23v-72.93c0-2.87,2.35-5.23,5.23-5.23l0,0
					c2.87,0,5.23,2.35,5.23,5.23v72.93C208.82,761.05,206.47,763.4,203.6,763.4z"/>
			</g>
			<g>
				<path class="st6" d="M223.46,763.4L223.46,763.4c-2.87,0-5.23-2.35-5.23-5.23v-72.93c0-2.87,2.35-5.23,5.23-5.23l0,0
					c2.87,0,5.23,2.35,5.23,5.23v72.93C228.69,761.05,226.33,763.4,223.46,763.4z"/>
				<path class="st7" d="M221.22,763.4L221.22,763.4c-2.87,0-5.23-2.35-5.23-5.23v-72.93c0-2.87,2.35-5.23,5.23-5.23h0
					c2.87,0,5.23,2.35,5.23,5.23v72.93C226.45,761.05,224.09,763.4,221.22,763.4z"/>
			</g>
			<g>
				<path class="st6" d="M241.08,763.4L241.08,763.4c-2.87,0-5.23-2.35-5.23-5.23v-72.93c0-2.87,2.35-5.23,5.23-5.23l0,0
					c2.87,0,5.23,2.35,5.23,5.23v72.93C246.31,761.05,243.96,763.4,241.08,763.4z"/>
				<path class="st7" d="M238.84,763.4L238.84,763.4c-2.87,0-5.23-2.35-5.23-5.23v-72.93c0-2.87,2.35-5.23,5.23-5.23l0,0
					c2.87,0,5.23,2.35,5.23,5.23v72.93C244.07,761.05,241.71,763.4,238.84,763.4z"/>
			</g>
			<g>
				<path class="st7" d="M258.7,763.4L258.7,763.4c-2.87,0-5.23-2.35-5.23-5.23v-72.93c0-2.87,2.35-5.23,5.23-5.23l0,0
					c2.87,0,5.23,2.35,5.23,5.23v72.93C263.93,761.05,261.58,763.4,258.7,763.4z"/>
				<path class="st7" d="M256.46,763.4L256.46,763.4c-2.87,0-5.23-2.35-5.23-5.23v-72.93c0-2.87,2.35-5.23,5.23-5.23l0,0
					c2.87,0,5.23,2.35,5.23,5.23v72.93C261.69,761.05,259.34,763.4,256.46,763.4z"/>
			</g>
			<g>
				<path class="st6" d="M310.67,763.4L310.67,763.4c2.87,0,5.23-2.35,5.23-5.23v-72.93c0-2.87-2.35-5.23-5.23-5.23l0,0
					c-2.87,0-5.23,2.35-5.23,5.23v72.93C305.44,761.05,307.8,763.4,310.67,763.4z"/>
				<path class="st7" d="M312.91,763.4L312.91,763.4c2.87,0,5.23-2.35,5.23-5.23v-72.93c0-2.87-2.35-5.23-5.23-5.23l0,0
					c-2.87,0-5.23,2.35-5.23,5.23v72.93C307.68,761.05,310.04,763.4,312.91,763.4z"/>
			</g>
			<g>
				<path class="st6" d="M293.05,763.4L293.05,763.4c2.87,0,5.23-2.35,5.23-5.23v-72.93c0-2.87-2.35-5.23-5.23-5.23l0,0
					c-2.87,0-5.23,2.35-5.23,5.23v72.93C287.82,761.05,290.17,763.4,293.05,763.4z"/>
				<path class="st7" d="M295.29,763.4L295.29,763.4c2.87,0,5.23-2.35,5.23-5.23v-72.93c0-2.87-2.35-5.23-5.23-5.23l0,0
					c-2.87,0-5.23,2.35-5.23,5.23v72.93C290.06,761.05,292.42,763.4,295.29,763.4z"/>
			</g>
			<g>
				<path class="st6" d="M274.08,763.4L274.08,763.4c2.87,0,5.23-2.35,5.23-5.23v-72.93c0-2.87-2.35-5.23-5.23-5.23l0,0
					c-2.87,0-5.23,2.35-5.23,5.23v72.93C268.86,761.05,271.21,763.4,274.08,763.4z"/>
				<path class="st7" d="M276.32,763.4L276.32,763.4c2.87,0,5.23-2.35,5.23-5.23v-72.93c0-2.87-2.35-5.23-5.23-5.23l0,0
					c-2.87,0-5.23,2.35-5.23,5.23v72.93C271.1,761.05,273.45,763.4,276.32,763.4z"/>
			</g>
			<rect x="198.49" y="753.48" class="st7" width="119.72" height="33.97"/>
			<rect x="198.49" y="657.56" class="st7" width="119.72" height="33.43"/>
			<ellipse class="st7" cx="258.35" cy="787.71" rx="59.86" ry="9.84"/>
			<ellipse class="st7" cx="258.35" cy="657.93" rx="59.86" ry="9.84"/>
			<ellipse class="st6" cx="258.35" cy="657.02" rx="56.36" ry="6.4"/>
		</g>
		<path class="st6" d="M318.21,690.99v-33.43h-0.05c-0.92-4.15-17.5-7.64-40.31-8.94c-0.03,11.12-0.25,22.25-0.68,33.36
			c-1.5,38.69-5.46,77.31-11.9,115.5c29.8-0.56,52.94-4.72,52.94-9.77c0-0.09-0.01-0.18-0.02-0.26h0.02v-33.97h-0.07v-62.49H318.21z
			 M287.82,753.48h-6.27v-62.49h6.27V753.48z M305.44,753.48h-4.93v-62.49h4.93V753.48z"/>
	</g>
	<g>
		<g>
			<path class="st0" d="M854.28,565.6l0,0.04l-1.56,15.46l-0.8,7.9l-0.9,8.96l-20.28,201.22c-0.19,1.91-1.8,3.37-3.73,3.37h-6.34
				c-2.12,0-3.81-1.75-3.75-3.86l6.35-200.73l0.28-8.96l0.25-7.9l0.49-15.46v-0.04H854.28z"/>
			<path class="st0" d="M977.71,798.68c0.07,2.12-1.63,3.86-3.74,3.86h-6.34c-1.93,0-3.54-1.46-3.73-3.37l-20.27-201.22l-0.9-8.96
				l-0.8-7.9l-1.56-15.46l0-0.04h29.98v0.04l0.49,15.46l0.25,7.9l0.28,8.96L977.71,798.68z"/>
			<polygon class="st8" points="824.3,565.64 854.28,565.64 852.72,581.1 851.92,589 823.56,589 823.81,581.1 			"/>
			<polygon class="st8" points="971.08,589 942.71,589 941.92,581.1 940.36,565.64 970.34,565.64 970.83,581.1 			"/>
		</g>
		<g>
			<path class="st8" d="M268.86,802.55h-6.34c-2.12,0-3.81-1.75-3.75-3.87l7.37-233.08h29.98l-23.54,233.58
				C272.4,801.09,270.79,802.55,268.86,802.55z"/>
			<path class="st8" d="M409.47,802.55h6.34c2.12,0,3.81-1.75,3.75-3.87l-7.37-233.08H382.2l23.54,233.58
				C405.93,801.09,407.55,802.55,409.47,802.55z"/>
		</g>
		<path class="st9" d="M260.52,567.04h709.83c4.14,0,7.5-3.36,7.5-7.5v-29.09c0-5.63-4.6-10.23-10.23-10.23H263.26
			c-5.63,0-10.23,4.6-10.23,10.23v29.09C253.03,563.67,256.4,567.04,260.52,567.04z"/>
		<path class="st10" d="M992.75,516.35h-60.63H298.76h-60.63c-4.79,0-8.71,3.95-8.71,8.78v17.64c0,4.83,3.92,8.78,8.71,8.78H297
			h636.87h58.87c4.79,0,8.71-3.95,8.71-8.78v-17.64C1001.46,520.3,997.54,516.35,992.75,516.35z"/>
		<path class="st9" d="M999.59,516.35H815.22v35.19h184.37c4.06,0,7.35-2.85,7.35-6.36l0-22.47
			C1006.95,519.2,1003.65,516.35,999.59,516.35z"/>
	</g>
	<g>
		<rect x="641.04" y="417.83" class="st4" width="53.94" height="96.22"/>
		<path class="st3" d="M813.84,468.3H536.72V293.89h277.12c3.78,0,6.84,3.06,6.84,6.84v160.74
			C820.68,465.24,817.62,468.3,813.84,468.3z"/>
		<path class="st0" d="M726.12,517.04H609.91c-3.78,0-6.84-3.06-6.84-6.84v-2.57c0-3.78,3.06-6.84,6.84-6.84h116.21
			c3.78,0,6.84,3.06,6.84,6.84v2.57C732.96,513.97,729.9,517.04,726.12,517.04z"/>
		<path class="st0" d="M803.16,468.3H532.87c-3.78,0-6.84-3.06-6.84-6.84V300.73c0-3.78,3.06-6.84,6.84-6.84h270.28
			c3.78,0,6.84,3.06,6.84,6.84v160.74C810,465.24,806.93,468.3,803.16,468.3z"/>
		<path class="st7" d="M794.92,442.05H541.1c-3.27,0-5.92-2.65-5.92-5.92V308.46c0-3.27,2.65-5.92,5.92-5.92h253.82
			c3.27,0,5.92,2.65,5.92,5.92v127.67C800.84,439.4,798.19,442.05,794.92,442.05z"/>
		<g>
			<g>
				<path class="st11" d="M698.96,431.76H551.98c-2.87,0-5.21-2.35-5.21-5.21V318.77c0-2.87,2.35-5.21,5.21-5.21h146.98
					c2.87,0,5.21,2.35,5.21,5.21v107.78C704.18,429.41,701.83,431.76,698.96,431.76z"/>
				<g>
					<path class="st12" d="M704.18,318.77v2.91H546.77v-2.91c0-2.87,2.34-5.22,5.21-5.22h146.98
						C701.83,313.55,704.18,315.9,704.18,318.77z"/>
					<g>
						<path class="st11" d="M551.49,317.61c0-0.79,0.64-1.43,1.42-1.43c0.79,0,1.42,0.64,1.42,1.43c0,0.79-0.64,1.42-1.42,1.42
							C552.13,319.04,551.49,318.4,551.49,317.61z"/>
						<path class="st11" d="M556.63,317.61c0-0.79,0.64-1.43,1.42-1.43s1.42,0.64,1.42,1.43c0,0.79-0.64,1.42-1.42,1.42
							S556.63,318.4,556.63,317.61z"/>
						<path class="st11" d="M561.77,317.61c0-0.79,0.64-1.43,1.42-1.43s1.42,0.64,1.42,1.43c0,0.79-0.64,1.42-1.42,1.42
							S561.77,318.4,561.77,317.61z"/>
					</g>
				</g>
				<g>
					<g>
						<path class="st12" d="M581.54,423.02h-27.79c-1.9,0-3.45-1.55-3.45-3.45v-91.1c0-1.9,1.55-3.45,3.45-3.45h27.79
							c1.9,0,3.45,1.55,3.45,3.45v91.1C584.99,421.46,583.44,423.02,581.54,423.02z"/>
						<g>
							<g>
								<path class="st11" d="M559.25,335.06h-5.25c-0.56,0-1.02-0.46-1.02-1.02v-5.25c0-0.56,0.46-1.02,1.02-1.02h5.25
									c0.56,0,1.02,0.46,1.02,1.02v5.25C560.27,334.6,559.81,335.06,559.25,335.06z"/>
								<path class="st11" d="M559.25,345.47h-5.25c-0.56,0-1.02-0.46-1.02-1.02v-5.25c0-0.56,0.46-1.02,1.02-1.02h5.25
									c0.56,0,1.02,0.46,1.02,1.02v5.25C560.27,345.01,559.81,345.47,559.25,345.47z"/>
								<path class="st11" d="M559.25,355.88h-5.25c-0.56,0-1.02-0.46-1.02-1.02v-5.25c0-0.56,0.46-1.02,1.02-1.02h5.25
									c0.56,0,1.02,0.46,1.02,1.02v5.25C560.27,355.42,559.81,355.88,559.25,355.88z"/>
								<path class="st11" d="M559.25,366.28h-5.25c-0.56,0-1.02-0.46-1.02-1.02v-5.25c0-0.56,0.46-1.02,1.02-1.02h5.25
									c0.56,0,1.02,0.46,1.02,1.02v5.25C560.27,365.82,559.81,366.28,559.25,366.28z"/>
								<path class="st11" d="M559.25,376.69h-5.25c-0.56,0-1.02-0.46-1.02-1.02v-5.25c0-0.56,0.46-1.02,1.02-1.02h5.25
									c0.56,0,1.02,0.46,1.02,1.02v5.25C560.27,376.23,559.81,376.69,559.25,376.69z"/>
								<path class="st11" d="M559.25,387.09h-5.25c-0.56,0-1.02-0.46-1.02-1.02v-5.25c0-0.56,0.46-1.02,1.02-1.02h5.25
									c0.56,0,1.02,0.46,1.02,1.02v5.25C560.27,386.64,559.81,387.09,559.25,387.09z"/>
								<path class="st11" d="M559.25,397.5h-5.25c-0.56,0-1.02-0.46-1.02-1.02v-5.25c0-0.56,0.46-1.02,1.02-1.02h5.25
									c0.56,0,1.02,0.46,1.02,1.02v5.25C560.27,397.04,559.81,397.5,559.25,397.5z"/>
								<path class="st11" d="M559.25,407.91h-5.25c-0.56,0-1.02-0.46-1.02-1.02v-5.25c0-0.56,0.46-1.02,1.02-1.02h5.25
									c0.56,0,1.02,0.46,1.02,1.02v5.25C560.27,407.45,559.81,407.91,559.25,407.91z"/>
								<path class="st11" d="M559.25,418.31h-5.25c-0.56,0-1.02-0.46-1.02-1.02v-5.25c0-0.56,0.46-1.02,1.02-1.02h5.25
									c0.56,0,1.02,0.46,1.02,1.02v5.25C560.27,417.85,559.81,418.31,559.25,418.31z"/>
							</g>
							<g>
								<path class="st11" d="M576.7,330.39h-12.43c-0.59,0-1.08-0.49-1.08-1.08l0,0c0-0.59,0.49-1.08,1.08-1.08h12.43
									c0.59,0,1.08,0.49,1.08,1.08l0,0C577.78,329.91,577.3,330.39,576.7,330.39z"/>
								<path class="st11" d="M576.7,334.61h-12.43c-0.59,0-1.08-0.49-1.08-1.08l0,0c0-0.59,0.49-1.08,1.08-1.08h12.43
									c0.59,0,1.08,0.49,1.08,1.08l0,0C577.78,334.12,577.3,334.61,576.7,334.61z"/>
							</g>
							<g>
								<path class="st11" d="M576.7,340.8h-12.43c-0.59,0-1.08-0.49-1.08-1.08l0,0c0-0.59,0.49-1.08,1.08-1.08h12.43
									c0.59,0,1.08,0.49,1.08,1.08l0,0C577.78,340.31,577.3,340.8,576.7,340.8z"/>
								<path class="st11" d="M571.32,345.01h-7.04c-0.59,0-1.08-0.49-1.08-1.08l0,0c0-0.59,0.49-1.08,1.08-1.08h7.04
									c0.59,0,1.08,0.49,1.08,1.08l0,0C572.4,344.53,571.91,345.01,571.32,345.01z"/>
							</g>
							<g>
								<path class="st11" d="M576.7,351.21h-12.43c-0.59,0-1.08-0.49-1.08-1.08l0,0c0-0.59,0.49-1.08,1.08-1.08h12.43
									c0.59,0,1.08,0.49,1.08,1.08l0,0C577.78,350.72,577.3,351.21,576.7,351.21z"/>
								<path class="st11" d="M576.7,355.42h-12.43c-0.59,0-1.08-0.49-1.08-1.08l0,0c0-0.59,0.49-1.08,1.08-1.08h12.43
									c0.59,0,1.08,0.49,1.08,1.08l0,0C577.78,354.93,577.3,355.42,576.7,355.42z"/>
							</g>
							<g>
								<path class="st11" d="M567.62,361.61h-3.34c-0.6,0-1.08-0.48-1.08-1.08l0,0c0-0.6,0.48-1.08,1.08-1.08h3.34
									c0.6,0,1.08,0.48,1.08,1.08l0,0C568.7,361.13,568.21,361.61,567.62,361.61z"/>
								<path class="st11" d="M574.67,361.61h-3.34c-0.6,0-1.08-0.48-1.08-1.08l0,0c0-0.6,0.48-1.08,1.08-1.08h3.34
									c0.6,0,1.08,0.48,1.08,1.08l0,0C575.75,361.13,575.27,361.61,574.67,361.61z"/>
								<path class="st11" d="M576.7,365.83h-12.43c-0.59,0-1.08-0.49-1.08-1.08l0,0c0-0.59,0.49-1.08,1.08-1.08h12.43
									c0.59,0,1.08,0.49,1.08,1.08l0,0C577.78,365.34,577.3,365.83,576.7,365.83z"/>
							</g>
							<g>
								<path class="st11" d="M567.62,403.24h-3.34c-0.6,0-1.08-0.48-1.08-1.08l0,0c0-0.6,0.48-1.08,1.08-1.08h3.34
									c0.6,0,1.08,0.48,1.08,1.08l0,0C568.7,402.75,568.21,403.24,567.62,403.24z"/>
								<path class="st11" d="M574.67,403.24h-3.34c-0.6,0-1.08-0.48-1.08-1.08l0,0c0-0.6,0.48-1.08,1.08-1.08h3.34
									c0.6,0,1.08,0.48,1.08,1.08l0,0C575.75,402.75,575.27,403.24,574.67,403.24z"/>
								<path class="st11" d="M576.7,407.45h-12.43c-0.59,0-1.08-0.49-1.08-1.08l0,0c0-0.59,0.49-1.08,1.08-1.08h12.43
									c0.59,0,1.08,0.49,1.08,1.08l0,0C577.78,406.96,577.3,407.45,576.7,407.45z"/>
							</g>
							<g>
								<path class="st11" d="M576.7,372.02h-12.43c-0.59,0-1.08-0.49-1.08-1.08l0,0c0-0.59,0.49-1.08,1.08-1.08h12.43
									c0.59,0,1.08,0.49,1.08,1.08l0,0C577.78,371.53,577.3,372.02,576.7,372.02z"/>
								<path class="st11" d="M576.7,376.23h-12.43c-0.59,0-1.08-0.49-1.08-1.08v0c0-0.59,0.49-1.08,1.08-1.08h12.43
									c0.59,0,1.08,0.49,1.08,1.08v0C577.78,375.75,577.3,376.23,576.7,376.23z"/>
							</g>
							<g>
								<path class="st11" d="M576.7,382.42h-12.43c-0.59,0-1.08-0.49-1.08-1.08l0,0c0-0.59,0.49-1.08,1.08-1.08h12.43
									c0.59,0,1.08,0.49,1.08,1.08l0,0C577.78,381.94,577.3,382.42,576.7,382.42z"/>
								<path class="st11" d="M571.86,386.64h-7.58c-0.59,0-1.08-0.49-1.08-1.08l0,0c0-0.59,0.49-1.08,1.08-1.08h7.58
									c0.59,0,1.08,0.49,1.08,1.08l0,0C572.94,386.15,572.45,386.64,571.86,386.64z"/>
							</g>
							<g>
								<path class="st11" d="M576.7,392.83h-12.43c-0.59,0-1.08-0.49-1.08-1.08v0c0-0.59,0.49-1.08,1.08-1.08h12.43
									c0.59,0,1.08,0.49,1.08,1.08v0C577.78,392.34,577.3,392.83,576.7,392.83z"/>
								<path class="st11" d="M576.7,397.05h-12.43c-0.59,0-1.08-0.49-1.08-1.08l0,0c0-0.59,0.49-1.08,1.08-1.08h12.43
									c0.59,0,1.08,0.49,1.08,1.08l0,0C577.78,396.56,577.3,397.05,576.7,397.05z"/>
							</g>
							<g>
								<path class="st11" d="M576.7,413.64h-12.43c-0.59,0-1.08-0.49-1.08-1.08l0,0c0-0.59,0.49-1.08,1.08-1.08h12.43
									c0.59,0,1.08,0.49,1.08,1.08l0,0C577.78,413.16,577.3,413.64,576.7,413.64z"/>
								<path class="st11" d="M576.7,417.86h-12.43c-0.59,0-1.08-0.49-1.08-1.08v0c0-0.59,0.49-1.08,1.08-1.08h12.43
									c0.59,0,1.08,0.49,1.08,1.08v0C577.78,417.37,577.3,417.86,576.7,417.86z"/>
							</g>
						</g>
					</g>
					<path class="st12" d="M591.53,413.64L591.53,413.64c-0.59,0-1.07-0.48-1.07-1.07v-86.49c0-0.59,0.48-1.07,1.07-1.07l0,0
						c0.59,0,1.07,0.48,1.07,1.07v86.49C592.6,413.16,592.12,413.64,591.53,413.64z"/>
					<g>
						<g>
							<g>
								<path class="st12" d="M649.06,364.38h-18.44c-0.67,0-1.22-0.55-1.22-1.22l0,0c0-0.67,0.55-1.22,1.22-1.22h18.44
									c0.67,0,1.22,0.55,1.22,1.22l0,0C650.29,363.83,649.73,364.38,649.06,364.38z"/>
								<path class="st12" d="M611.12,364.38h-10.89c-0.67,0-1.22-0.55-1.22-1.22l0,0c0-0.67,0.55-1.22,1.22-1.22h10.89
									c0.67,0,1.22,0.55,1.22,1.22l0,0C612.35,363.83,611.8,364.38,611.12,364.38z"/>
								<path class="st12" d="M626.13,364.38h-10.89c-0.67,0-1.22-0.55-1.22-1.22l0,0c0-0.67,0.55-1.22,1.22-1.22h10.89
									c0.67,0,1.22,0.55,1.22,1.22l0,0C627.35,363.83,626.8,364.38,626.13,364.38z"/>
							</g>
							<g>
								<path class="st12" d="M618.67,352.26h-18.44c-0.67,0-1.22-0.55-1.22-1.22l0,0c0-0.67,0.55-1.22,1.22-1.22h18.44
									c0.67,0,1.22,0.55,1.22,1.22l0,0C619.9,351.71,619.35,352.26,618.67,352.26z"/>
								<path class="st12" d="M643.42,352.26h-10.89c-0.67,0-1.22-0.55-1.22-1.22l0,0c0-0.67,0.55-1.22,1.22-1.22h10.89
									c0.67,0,1.22,0.55,1.22,1.22l0,0C644.64,351.71,644.09,352.26,643.42,352.26z"/>
								<path class="st12" d="M658.42,352.26h-10.89c-0.67,0-1.22-0.55-1.22-1.22l0,0c0-0.67,0.55-1.22,1.22-1.22h10.89
									c0.67,0,1.22,0.55,1.22,1.22l0,0C659.65,351.71,659.1,352.26,658.42,352.26z"/>
								<path class="st12" d="M628.18,352.26h-5.57c-0.67,0-1.22-0.55-1.22-1.22l0,0c0-0.67,0.55-1.22,1.22-1.22h5.57
									c0.67,0,1.22,0.55,1.22,1.22l0,0C629.4,351.71,628.85,352.26,628.18,352.26z"/>
							</g>
							<g>
								<path class="st12" d="M621.05,376.61h-10.89c-0.67,0-1.22-0.55-1.22-1.22l0,0c0-0.67,0.55-1.22,1.22-1.22h10.89
									c0.67,0,1.22,0.55,1.22,1.22l0,0C622.27,376.06,621.72,376.61,621.05,376.61z"/>
								<path class="st12" d="M605.81,376.61h-5.57c-0.67,0-1.22-0.55-1.22-1.22l0,0c0-0.67,0.55-1.22,1.22-1.22h5.57
									c0.67,0,1.22,0.55,1.22,1.22l0,0C607.03,376.06,606.48,376.61,605.81,376.61z"/>
								<path class="st12" d="M631.26,376.61h-5.57c-0.67,0-1.22-0.55-1.22-1.22l0,0c0-0.67,0.55-1.22,1.22-1.22h5.57
									c0.67,0,1.22,0.55,1.22,1.22l0,0C632.48,376.06,631.93,376.61,631.26,376.61z"/>
							</g>
							<g>
								<path class="st12" d="M634.06,388.84h-18.44c-0.67,0-1.22-0.55-1.22-1.22l0,0c0-0.67,0.55-1.22,1.22-1.22h18.44
									c0.67,0,1.22,0.55,1.22,1.22l0,0C635.28,388.29,634.73,388.84,634.06,388.84z"/>
								<path class="st12" d="M611.12,388.84h-10.89c-0.67,0-1.22-0.55-1.22-1.22l0,0c0-0.67,0.55-1.22,1.22-1.22h10.89
									c0.67,0,1.22,0.55,1.22,1.22l0,0C612.35,388.29,611.8,388.84,611.12,388.84z"/>
								<path class="st12" d="M645.07,388.84h-5.57c-0.67,0-1.22-0.55-1.22-1.22l0,0c0-0.67,0.55-1.22,1.22-1.22h5.57
									c0.67,0,1.22,0.55,1.22,1.22l0,0C646.29,388.29,645.74,388.84,645.07,388.84z"/>
							</g>
							<path class="st12" d="M649.09,358.27h-48.85c-0.67,0-1.22-0.55-1.22-1.22l0,0c0-0.67,0.55-1.22,1.22-1.22h48.85
								c0.67,0,1.22,0.55,1.22,1.22l0,0C650.31,357.72,649.76,358.27,649.09,358.27z"/>
							<path class="st12" d="M649.09,382.72h-48.85c-0.67,0-1.22-0.55-1.22-1.22l0,0c0-0.67,0.55-1.22,1.22-1.22h48.85
								c0.67,0,1.22,0.55,1.22,1.22l0,0C650.31,382.17,649.76,382.72,649.09,382.72z"/>
							<g>
								<path class="st12" d="M638.9,370.49h-5.57c-0.67,0-1.22-0.55-1.22-1.22l0,0c0-0.67,0.55-1.22,1.22-1.22h5.57
									c0.67,0,1.22,0.55,1.22,1.22l0,0C640.12,369.94,639.57,370.49,638.9,370.49z"/>
								<path class="st12" d="M654.22,370.49h-10.89c-0.67,0-1.22-0.55-1.22-1.22l0,0c0-0.67,0.55-1.22,1.22-1.22h10.89
									c0.67,0,1.22,0.55,1.22,1.22l0,0C655.45,369.94,654.9,370.49,654.22,370.49z"/>
								<path class="st12" d="M628.92,370.49h-28.68c-0.67,0-1.22-0.55-1.22-1.22l0,0c0-0.67,0.55-1.22,1.22-1.22h28.68
									c0.67,0,1.22,0.55,1.22,1.22l0,0C630.14,369.94,629.59,370.49,628.92,370.49z"/>
							</g>
						</g>
						<g>
							<path class="st12" d="M688.61,335.06h-84.57c-2.76,0-5.03-2.26-5.03-5.03l0,0c0-2.76,2.26-5.03,5.03-5.03h84.57
								c2.76,0,5.03,2.26,5.03,5.03l0,0C693.63,332.8,691.37,335.06,688.61,335.06z"/>
							<g>
								<g>
									<circle class="st11" cx="604.53" cy="329.37" r="2.76"/>
									<path class="st12" d="M602.69,329.37c0-1.01,0.82-1.83,1.83-1.83c1.01,0,1.83,0.82,1.83,1.83c0,1.01-0.82,1.83-1.83,1.83
										C603.51,331.2,602.69,330.38,602.69,329.37z"/>
								</g>
								<path class="st11" d="M608.96,333.66l-0.03,0.04c-0.19,0.21-0.51,0.23-0.72,0.04l-2.33-2.09c-0.21-0.19-0.23-0.51-0.04-0.72
									l0.03-0.04c0.19-0.21,0.51-0.23,0.72-0.04l2.33,2.09C609.13,333.12,609.14,333.45,608.96,333.66z"/>
							</g>
						</g>
						<g>
							<path class="st12" d="M599.01,342.08c0-1.48,1.2-2.67,2.67-2.67c1.48,0,2.67,1.2,2.67,2.67c0,1.48-1.2,2.67-2.67,2.67
								C600.21,344.75,599.01,343.56,599.01,342.08z"/>
							<path class="st12" d="M607.03,342.08c0-1.48,1.2-2.67,2.67-2.67c1.48,0,2.67,1.2,2.67,2.67c0,1.48-1.2,2.67-2.67,2.67
								C608.23,344.75,607.03,343.56,607.03,342.08z"/>
							<path class="st12" d="M615.05,342.08c0-1.48,1.2-2.67,2.67-2.67c1.48,0,2.67,1.2,2.67,2.67c0,1.48-1.2,2.67-2.67,2.67
								C616.24,344.75,615.05,343.56,615.05,342.08z"/>
							<path class="st12" d="M623.06,342.08c0-1.48,1.2-2.67,2.67-2.67s2.67,1.2,2.67,2.67c0,1.48-1.2,2.67-2.67,2.67
								S623.06,343.56,623.06,342.08z"/>
							<path class="st12" d="M631.08,342.08c0-1.48,1.2-2.67,2.67-2.67c1.48,0,2.67,1.2,2.67,2.67c0,1.48-1.2,2.67-2.67,2.67
								C632.28,344.75,631.08,343.56,631.08,342.08z"/>
						</g>
					</g>
				</g>
			</g>
			<g>
				<path class="st11" d="M785.14,356.44H716.7c-2.82,0-5.13-2.31-5.13-5.13v-32.77c0-2.82,2.31-5.13,5.13-5.13h68.44
					c2.82,0,5.13,2.31,5.13,5.13v32.77C790.27,354.13,787.97,356.44,785.14,356.44z"/>
				<g>
					<path class="st12" d="M790.27,318.54v2.99h-78.7v-2.99c0-2.82,2.31-5.13,5.13-5.13h68.44
						C787.97,313.41,790.27,315.72,790.27,318.54z"/>
					<g>
						<path class="st11" d="M715.56,317.47c0-0.79,0.64-1.42,1.42-1.42c0.79,0,1.43,0.64,1.43,1.42c0,0.79-0.64,1.42-1.43,1.42
							C716.2,318.9,715.56,318.26,715.56,317.47z"/>
						<path class="st11" d="M720.7,317.47c0-0.79,0.64-1.42,1.43-1.42c0.79,0,1.42,0.64,1.42,1.42c0,0.79-0.64,1.42-1.42,1.42
							C721.34,318.9,720.7,318.26,720.7,317.47z"/>
						<path class="st11" d="M725.84,317.47c0-0.79,0.64-1.42,1.42-1.42c0.79,0,1.42,0.64,1.42,1.42c0,0.79-0.64,1.42-1.42,1.42
							C726.47,318.9,725.84,318.26,725.84,317.47z"/>
					</g>
				</g>
				<g>
					<g>
						<path class="st12" d="M724.21,351.33L724.21,351.33c-0.96,0-1.74-0.78-1.74-1.74v-21.76c0-0.96,0.78-1.74,1.74-1.74l0,0
							c0.96,0,1.74,0.78,1.74,1.74v21.76C725.95,350.54,725.16,351.33,724.21,351.33z"/>
						<path class="st0" d="M727.22,336.78h-6.03c-0.95,0-1.73-0.78-1.73-1.73l0,0c0-0.95,0.78-1.73,1.73-1.73h6.03
							c0.95,0,1.73,0.78,1.73,1.73l0,0C728.95,336,728.17,336.78,727.22,336.78z"/>
					</g>
					<g>
						<path class="st12" d="M737.46,351.33L737.46,351.33c-0.96,0-1.74-0.78-1.74-1.74v-21.76c0-0.96,0.78-1.74,1.74-1.74l0,0
							c0.96,0,1.74,0.78,1.74,1.74v21.76C739.2,350.54,738.42,351.33,737.46,351.33z"/>
						<path class="st0" d="M740.47,341.05h-6.03c-0.95,0-1.73-0.78-1.73-1.73l0,0c0-0.95,0.78-1.73,1.73-1.73h6.03
							c0.95,0,1.73,0.78,1.73,1.73l0,0C742.2,340.27,741.42,341.05,740.47,341.05z"/>
					</g>
					<g>
						<path class="st12" d="M750.71,351.33L750.71,351.33c-0.96,0-1.74-0.78-1.74-1.74v-21.76c0-0.96,0.78-1.74,1.74-1.74l0,0
							c0.96,0,1.74,0.78,1.74,1.74v21.76C752.45,350.54,751.67,351.33,750.71,351.33z"/>
						<path class="st0" d="M753.72,333.79h-6.03c-0.95,0-1.73-0.78-1.73-1.73l0,0c0-0.95,0.78-1.73,1.73-1.73h6.03
							c0.95,0,1.73,0.78,1.73,1.73l0,0C755.46,333.01,754.68,333.79,753.72,333.79z"/>
					</g>
					<g>
						<path class="st12" d="M763.96,351.33L763.96,351.33c-0.96,0-1.74-0.78-1.74-1.74v-21.76c0-0.96,0.78-1.74,1.74-1.74l0,0
							c0.96,0,1.74,0.78,1.74,1.74v21.76C765.71,350.54,764.92,351.33,763.96,351.33z"/>
						<path class="st0" d="M766.98,347.04h-6.03c-0.95,0-1.73-0.78-1.73-1.73l0,0c0-0.95,0.78-1.73,1.73-1.73h6.03
							c0.95,0,1.73,0.78,1.73,1.73l0,0C768.71,346.26,767.93,347.04,766.98,347.04z"/>
					</g>
					<g>
						<path class="st12" d="M777.64,351.33L777.64,351.33c-0.96,0-1.74-0.78-1.74-1.74v-21.76c0-0.96,0.78-1.74,1.74-1.74l0,0
							c0.96,0,1.74,0.78,1.74,1.74v21.76C779.39,350.54,778.6,351.33,777.64,351.33z"/>
						<path class="st0" d="M780.66,333.79h-6.03c-0.95,0-1.73-0.78-1.73-1.73l0,0c0-0.95,0.78-1.73,1.73-1.73h6.03
							c0.95,0,1.73,0.78,1.73,1.73l0,0C782.39,333.01,781.61,333.79,780.66,333.79z"/>
					</g>
				</g>
			</g>
			<g>
				<path class="st12" d="M785.52,431.76h-68.81c-2.73,0-4.97-2.24-4.97-4.97V371.1c0-2.73,2.24-4.97,4.97-4.97h68.81
					c2.73,0,4.97,2.24,4.97,4.97v55.69C790.49,429.52,788.25,431.76,785.52,431.76z"/>
				<path class="st11" d="M790.49,371.1v3.06h-78.74v-3.06c0-2.73,2.24-4.97,4.97-4.97h68.8
					C788.25,366.13,790.49,368.37,790.49,371.1z"/>
				<g>
					<path class="st12" d="M715.58,370.49c0-0.79,0.64-1.42,1.42-1.42c0.79,0,1.42,0.64,1.42,1.42c0,0.79-0.64,1.42-1.42,1.42
						C716.21,371.92,715.58,371.28,715.58,370.49z"/>
					<path class="st12" d="M720.71,370.49c0-0.79,0.64-1.42,1.42-1.42s1.42,0.64,1.42,1.42c0,0.79-0.64,1.42-1.42,1.42
						S720.71,371.28,720.71,370.49z"/>
					<path class="st12" d="M725.85,370.49c0-0.79,0.64-1.42,1.42-1.42c0.79,0,1.42,0.64,1.42,1.42c0,0.79-0.64,1.42-1.42,1.42
						C726.49,371.92,725.85,371.28,725.85,370.49z"/>
				</g>
				<g>
					<path class="st0" d="M719.49,381.5h-2.66c-0.67,0-1.22-0.55-1.22-1.22v0c0-0.67,0.55-1.22,1.22-1.22h2.66
						c0.67,0,1.22,0.55,1.22,1.22v0C720.71,380.95,720.16,381.5,719.49,381.5z"/>
					<path class="st0" d="M719.49,386.95h-2.66c-0.67,0-1.22-0.55-1.22-1.22v0c0-0.67,0.55-1.22,1.22-1.22h2.66
						c0.67,0,1.22,0.55,1.22,1.22v0C720.71,386.4,720.16,386.95,719.49,386.95z"/>
					<path class="st0" d="M719.49,392.4h-2.66c-0.67,0-1.22-0.55-1.22-1.22v0c0-0.67,0.55-1.22,1.22-1.22h2.66
						c0.67,0,1.22,0.55,1.22,1.22v0C720.71,391.85,720.16,392.4,719.49,392.4z"/>
					<path class="st0" d="M719.49,397.85h-2.66c-0.67,0-1.22-0.55-1.22-1.22v0c0-0.67,0.55-1.22,1.22-1.22h2.66
						c0.67,0,1.22,0.55,1.22,1.22v0C720.71,397.3,720.16,397.85,719.49,397.85z"/>
					<path class="st0" d="M719.49,403.3h-2.66c-0.67,0-1.22-0.55-1.22-1.22v0c0-0.67,0.55-1.22,1.22-1.22h2.66
						c0.67,0,1.22,0.55,1.22,1.22v0C720.71,402.75,720.16,403.3,719.49,403.3z"/>
					<path class="st0" d="M719.49,408.75h-2.66c-0.67,0-1.22-0.55-1.22-1.22v0c0-0.67,0.55-1.22,1.22-1.22h2.66
						c0.67,0,1.22,0.55,1.22,1.22v0C720.71,408.2,720.16,408.75,719.49,408.75z"/>
					<path class="st0" d="M719.49,414.2h-2.66c-0.67,0-1.22-0.55-1.22-1.22v0c0-0.67,0.55-1.22,1.22-1.22h2.66
						c0.67,0,1.22,0.55,1.22,1.22v0C720.71,413.65,720.16,414.2,719.49,414.2z"/>
					<path class="st0" d="M719.49,419.65h-2.66c-0.67,0-1.22-0.55-1.22-1.22v0c0-0.67,0.55-1.22,1.22-1.22h2.66
						c0.67,0,1.22,0.55,1.22,1.22v0C720.71,419.1,720.16,419.65,719.49,419.65z"/>
					<path class="st0" d="M719.49,425.1h-2.66c-0.67,0-1.22-0.55-1.22-1.22v0c0-0.67,0.55-1.22,1.22-1.22h2.66
						c0.67,0,1.22,0.55,1.22,1.22v0C720.71,424.55,720.16,425.1,719.49,425.1z"/>
					<path class="st0" d="M734.15,392.4h-10.89c-0.67,0-1.22-0.55-1.22-1.22l0,0c0-0.67,0.55-1.22,1.22-1.22h10.89
						c0.67,0,1.22,0.55,1.22,1.22l0,0C735.37,391.85,734.82,392.4,734.15,392.4z"/>
					<path class="st0" d="M734.15,397.85h-10.89c-0.67,0-1.22-0.55-1.22-1.22l0,0c0-0.67,0.55-1.22,1.22-1.22h10.89
						c0.67,0,1.22,0.55,1.22,1.22l0,0C735.37,397.3,734.82,397.85,734.15,397.85z"/>
					<path class="st0" d="M734.15,419.65h-10.89c-0.67,0-1.22-0.55-1.22-1.22l0,0c0-0.67,0.55-1.22,1.22-1.22h10.89
						c0.67,0,1.22,0.55,1.22,1.22l0,0C735.37,419.1,734.82,419.65,734.15,419.65z"/>
				</g>
			</g>
		</g>
	</g>
	<g>
		<g>
			<path class="st13" d="M327.69,502.54h8.31c2.93,0,5.33-2.4,5.33-5.33v-14.88c0-2.93-2.4-5.33-5.33-5.33h-8.48
				c-0.05-1.5-0.09-3-0.1-4.49h11.8c3.82,0,6.95,3.13,6.95,6.95v20.63c0,3.82-3.13,6.95-6.95,6.95H327.1
				C327.36,505.54,327.55,504.04,327.69,502.54z"/>
			<path class="st14" d="M331.94,466.76v45.34c0,2.33-1.64,4.24-3.64,4.24h-33.37c-2,0-3.64-1.91-3.64-4.24v-45.34
				c0-2.33,1.64-4.24,3.64-4.24h33.37C330.3,462.52,331.94,464.42,331.94,466.76z"/>
			<path class="st13" d="M332.52,466.76v45.34c0,2.33-1.64,4.24-3.64,4.24h-23.51c-2,0-3.64-1.91-3.64-4.24v-45.34
				c0-2.33,1.64-4.24,3.64-4.24h23.51C330.88,462.52,332.52,464.42,332.52,466.76z"/>
		</g>
		<g>
			<g>
				<path class="st15" d="M922.8,347.75c-13.84,25.29-18.95,54.95-14.47,83.42c0.37,2.38,4.09,1.87,3.71-0.52
					c-4.39-27.88,0.68-56.72,14.22-81.48C927.42,347.06,923.94,345.66,922.8,347.75z"/>
				<path class="st10" d="M940.71,341.9c0.67-1.03,1.16-2.16,1.28-3.39c0.23-2.31-1.06-4.41-3.2-5.27c-3.75-1.51-6.8,0.53-9.09,3.26
					c-0.81-2.34-2.09-4.53-4.25-5.86c-2.28-1.41-5.35-1.58-7.71-0.28c-3.14,1.72-3.76,5.85-2.08,8.54
					c-2.04,0.19-4.04,0.64-5.81,1.71c-2.28,1.39-4.01,3.96-3.99,6.69c0.03,2.72,1.94,4.86,4.45,5.69c2.23,0.74,4.48,0.42,6.65-0.24
					c-1.4,5.16,2.09,10.96,8.01,11.21c5.37,0.22,9.34-4.38,9.14-9.24c0.14-0.41,0.26-0.82,0.36-1.25c1.85,0.42,3.77,0.46,5.59-0.19
					c2.42-0.86,4.48-3.14,4.77-5.73C945.14,344.76,943.09,342.48,940.71,341.9z"/>
				<path class="st9" d="M927.79,341.9c-1.8,0-3.48,0.93-3.73,2.87c-0.21,1.6,1.06,3.73,2.87,3.73c1.8,0,3.48-0.93,3.73-2.87
					C930.87,344.03,929.6,341.9,927.79,341.9z"/>
			</g>
			<g>
				<g>
					<ellipse class="st16" cx="908.78" cy="474.1" rx="27.57" ry="38.52"/>
					<path class="st16" d="M916.62,402.25v60.15c0,4.44-2.6,8.07-5.78,8.07h-4.15c-3.18,0-5.77-3.63-5.77-8.07v-60.15
						c0-4.44,2.6-8.07,5.77-8.07h4.15C914.02,394.18,916.62,397.82,916.62,402.25z"/>
					<path class="st17" d="M927.4,508.46c0,0.79-0.09,1.54-0.25,2.26c-0.27,1.17-0.73,2.22-1.34,3.08
						c-0.98,1.37-2.34,2.22-3.82,2.22h-26.42c-2.41,0-4.46-2.24-5.16-5.29c-0.16-0.72-0.25-1.48-0.25-2.26
						c0-2.08,0.61-3.97,1.59-5.33s2.33-2.22,3.82-2.22h26.42C924.96,500.91,927.4,504.3,927.4,508.46z"/>
					<path class="st16" d="M916.82,403.93h-16.09c-3.11,0-5.66-2.55-5.66-5.66v-2.06c0-3.11,2.55-5.66,5.66-5.66h16.09
						c3.11,0,5.66,2.55,5.66,5.66v2.06C922.48,401.38,919.93,403.93,916.82,403.93z"/>
					<path class="st16" d="M927.4,508.46c0,0.79-0.09,1.54-0.25,2.26h-36.74c-0.16-0.72-0.25-1.48-0.25-2.26
						c0-2.08,0.61-3.97,1.59-5.33s2.33-2.22,3.82-2.22h26.42C924.96,500.91,927.4,504.3,927.4,508.46z"/>
					<rect x="900.93" y="403.93" class="st17" width="15.69" height="4.7"/>
				</g>
				<g>
					<path class="st17" d="M901.71,509.49c-0.79-7.27-0.74-14.69-0.69-22.03c0.07-10.99,0.99-21.91,2.11-32.77
						c0.65-6.27,1.38-12.51,2.08-18.77c-13.54,2.44-24.01,18.6-24.01,38.19c0,17.98,8.82,33.09,20.75,37.33
						C901.86,510.78,901.78,510.14,901.71,509.49z"/>
					<path class="st17" d="M903.13,454.68c1.14-10.96,2.54-21.86,3.53-32.85c0.83-9.21,1.43-18.53,0.24-27.65h-0.2
						c-3.18,0-5.77,3.63-5.77,8.07v60.15c0,1.71,0.39,3.3,1.05,4.61C902.31,462.9,902.71,458.79,903.13,454.68z"/>
					<path class="st17" d="M901.71,509.49c-0.31-2.84-0.49-5.71-0.59-8.58h-5.56c-1.49,0-2.84,0.85-3.82,2.22
						c-0.98,1.37-1.59,3.25-1.59,5.33c0,0.79,0.09,1.54,0.25,2.26c0.69,3.06,2.74,5.29,5.16,5.29h7.24
						C902.3,513.88,901.95,511.67,901.71,509.49z"/>
					<path class="st17" d="M906.33,390.56h-6.47c-2.63,0-4.79,3.01-4.79,6.68s2.15,6.68,4.79,6.68h7.7
						C907.51,399.44,907.15,394.97,906.33,390.56z"/>
					<path class="st17" d="M901.71,509.49c-0.31-2.84-0.49-5.71-0.59-8.58h-5.56c-1.49,0-2.84,0.85-3.82,2.22
						c-0.98,1.37-1.59,3.25-1.59,5.33c0,0.79,0.09,1.54,0.25,2.26h11.45C901.8,510.31,901.75,509.9,901.71,509.49z"/>
					<path class="st17" d="M907.56,403.93h-6.63v4.7h6.59C907.57,407.06,907.58,405.49,907.56,403.93z"/>
				</g>
			</g>
		</g>
		<g>
			<g>
				<path class="st0" d="M876.65,504.22l-3.43,0.45c-0.68,0.09-1.31-0.47-1.41-1.24l-9.46-72.91c-0.06-0.49,0.39-6.02,0.73-10.04
					c0.2-2.35,0.36-4.17,0.36-4.17s0.64,1.72,1.45,3.93c1.39,3.79,3.29,9.02,3.35,9.51l9.46,72.91
					C877.79,503.43,877.32,504.13,876.65,504.22z"/>
				<path class="st9" d="M877.9,504.21l-9.62-74.15l-5.89,0.76l9.62,74.15c0.11,0.85,0.9,1.46,1.76,1.35l2.78-0.36
					C877.4,505.86,878.01,505.07,877.9,504.21z"/>
				<path class="st16" d="M877.93,504.5l-0.41-3.15l-5.89,0.76l0.41,3.15c0.2,1.56,1.64,2.67,3.2,2.47l0.21-0.03
					C877.02,507.5,878.14,506.06,877.93,504.5z"/>
				<path class="st18" d="M877.64,502.22l-0.11-0.86l-5.89,0.76l0.11,0.86c0.01,0.1,0.11,0.17,0.21,0.16l5.52-0.72
					C877.58,502.41,877.65,502.32,877.64,502.22z"/>
				<path class="st18" d="M864.89,420.25l-1.81,0.23c0.2-2.35,0.36-4.17,0.36-4.17S864.08,418.03,864.89,420.25z"/>
			</g>
			<g>
				<path class="st0" d="M881.85,429.99l3.19,0.64c0.63,0.13,1.03,0.81,0.88,1.53l-13.62,67.77c-0.09,0.45-2.17,5.24-3.69,8.71
					c-0.88,2.03-1.58,3.6-1.58,3.6s-0.05-1.72-0.1-3.94c-0.09-3.79-0.2-9.03-0.11-9.48l13.62-67.77
					C880.59,430.35,881.22,429.87,881.85,429.99z"/>
				<path class="st9" d="M880.74,429.62l-13.86,68.93l5.47,1.1l13.86-68.93c0.16-0.79-0.36-1.57-1.15-1.73l-2.58-0.52
					C881.68,428.31,880.9,428.83,880.74,429.62z"/>
				<path class="st16" d="M880.79,429.36l-0.59,2.92l5.47,1.1l0.59-2.92c0.29-1.45-0.66-2.88-2.11-3.17l-0.2-0.04
					C882.51,426.96,881.08,427.91,880.79,429.36z"/>
				<path class="st18" d="M880.36,431.48l-0.16,0.8l5.47,1.1l0.16-0.8c0.02-0.09-0.04-0.19-0.14-0.2l-5.13-1.03
					C880.47,431.32,880.38,431.38,880.36,431.48z"/>
				<path class="st18" d="M866.93,508.32l1.68,0.34c-0.88,2.03-1.58,3.6-1.58,3.6S866.98,510.53,866.93,508.32z"/>
			</g>
			<g>
				<path class="st18" d="M864.06,494.34L864.06,494.34c-0.26,0.02-0.49-0.19-0.51-0.45l-0.61-9.9c-0.02-0.26,0.19-0.49,0.45-0.51
					l0,0c0.26-0.02,0.49,0.19,0.51,0.45l0.61,9.9C864.52,494.09,864.32,494.32,864.06,494.34z"/>
				<path class="st19" d="M863.85,491.05L863.85,491.05c-1.36,0.08-2.54-0.96-2.63-2.32l-3.38-54.78c-0.08-1.36,0.96-2.54,2.32-2.63
					l0,0c1.36-0.08,2.54,0.96,2.63,2.32l3.38,54.78C866.26,489.78,865.21,490.97,863.85,491.05z"/>
				<path class="st19" d="M860.15,432.65L860.15,432.65c-0.75,0.05-1.4-0.53-1.45-1.28l-0.41-6.7c-0.05-0.75,0.53-1.4,1.28-1.45l0,0
					c0.75-0.05,1.4,0.53,1.45,1.28l0.41,6.7C861.47,431.95,860.9,432.6,860.15,432.65z"/>
				<path class="st14" d="M864.16,457.75l-4.9,0.3c-0.45,0.03-0.84-0.32-0.87-0.77l-1.7-27.52c-0.11-1.8,1.27-3.36,3.07-3.47l0,0
					c1.8-0.11,3.36,1.27,3.47,3.07l1.7,27.52C864.95,457.33,864.61,457.72,864.16,457.75z"/>
				<path class="st19" d="M863.3,433.99l-6.12,0.38c-0.35,0.02-0.66-0.25-0.68-0.6l-0.02-0.25c-0.02-0.35,0.25-0.66,0.6-0.68
					l6.12-0.38c0.35-0.02,0.66,0.25,0.68,0.6l0.02,0.25C863.92,433.67,863.65,433.97,863.3,433.99z"/>
				<path class="st19" d="M863.44,436.19l-6.12,0.38c-0.35,0.02-0.66-0.25-0.68-0.6l-0.02-0.25c-0.02-0.35,0.25-0.66,0.6-0.68
					l6.12-0.38c0.35-0.02,0.66,0.25,0.68,0.6l0.02,0.25C864.06,435.86,863.79,436.17,863.44,436.19z"/>
			</g>
			<g>
				<path class="st5" d="M888.94,448.03v64.5c0,2.06-1.69,3.75-3.75,3.75h-27.75c-2.06,0-3.75-1.69-3.75-3.75v-64.5
					c0-2.06,1.69-3.75,3.75-3.75h27.75C887.26,444.29,888.94,445.97,888.94,448.03z"/>
				<path class="st4" d="M888.94,448.03v64.5c0,2.06-1.69,3.75-3.75,3.75h-21.04v-72h21.04
					C887.26,444.29,888.94,445.97,888.94,448.03z"/>
			</g>
		</g>
	</g>
	<g>
		<path class="st20" d="M507.99,397.5h-25.5c-3.09,0-5.62-2.53-5.62-5.62v-53.3c0-3.09,2.53-5.62,5.62-5.62h25.5
			c3.09,0,5.62,2.53,5.62,5.62v53.3C513.62,394.97,511.09,397.5,507.99,397.5z"/>
		<path class="st21" d="M513.62,369.34v14.29c-12.69-4.93-34.87-26.56-36.74-36.69v-8.35c0-1.26,0.43-2.44,1.14-3.38
			c2.5,4.83,4.4,7.81,4.4,7.81l1.84,2.1C487.62,354.78,500.86,364.43,513.62,369.34z"/>
		<g>
			<g>
				<path class="st20" d="M529.49,372.65c-14.83,0.39-40.36-13.56-45.23-27.54l-1.84-2.1c0,0-31.18-48.85-6.91-70.81
					c5.62-5.09,14.59-4.14,22.17-4.24l8.6-0.11c21.09-0.29,38.54,13.86,38.78,31.42l0.16,12.14l0.23,17.08
					C545.44,328.48,545.27,372.24,529.49,372.65z"/>
				<path class="st0" d="M476.96,338.24c0,0-0.09,0.09-0.12,0.08c-0.03-0.01-0.05-0.02-0.06-0.03c-0.01-0.01,0-0.02,0.02-0.03
					C476.84,338.26,476.89,338.25,476.96,338.24z"/>
				<path class="st20" d="M543.66,319.53c6.93,4.5,10.94,10.61,8.97,13.64c-1.97,3.03-9.18,1.83-16.11-2.67
					c-6.93-4.5-10.94-10.61-8.97-13.64C529.52,313.83,536.73,315.02,543.66,319.53z"/>
				<path class="st22" d="M479.81,268.53c0,0-22.15-0.07-26.86,2.92c-7.37,4.68-10.64,13.38-8.8,21.43c0,0.02,0,0.04,0,0.07
					l0.05,0.14c0.28,1.16,0.66,2.3,1.15,3.42l10.43,30.91c2.29,14.69,12.14,20.61,21.37,20.51c0,0,16.49-0.91,16.97-20.87
					l2.67-35.06C496.69,278.98,489.04,268.43,479.81,268.53z"/>
				<path class="st20" d="M531.95,346.89l12.44,1.49c1.53,0.18,2.93-0.92,3.11-2.44l0,0c0.18-1.53-0.91-2.93-2.44-3.11l-12.44-1.49
					c-1.53-0.18-2.93,0.92-3.11,2.44l0,0C529.32,345.31,530.42,346.7,531.95,346.89z"/>
				<path class="st20" d="M530.3,351.48l12.44,1.49c1.53,0.18,2.93-0.92,3.11-2.44h0c0.18-1.53-0.91-2.93-2.44-3.11l-12.44-1.49
					c-1.53-0.18-2.93,0.92-3.11,2.44l0,0C527.67,349.9,528.77,351.29,530.3,351.48z"/>
				<path class="st22" d="M490.6,319.12h-7.65c-4.05,0-7.37-3.31-7.37-7.37v-45.74c0-4.05,3.31-7.37,7.37-7.37h14.3
					c4.05,0,7.37,3.31,7.37,7.37v39.09C504.62,312.82,498.31,319.12,490.6,319.12z"/>
				<g>
					<g>
						<path class="st0" d="M543.32,312.16c0.7-4.44-2.33-8.6-6.77-9.3c-4.44-0.7-8.6,2.33-9.3,6.77c-0.7,4.44,2.33,8.6,6.77,9.3
							C538.45,319.63,542.62,316.6,543.32,312.16z"/>
						<path class="st23" d="M543.21,312.7c0.47-2.99-1.57-5.79-4.56-6.26c-2.99-0.47-5.79,1.57-6.26,4.56
							c-0.47,2.99,1.57,5.79,4.56,6.26C539.93,317.73,542.74,315.69,543.21,312.7z"/>
						<path class="st24" d="M542.95,312.66c0.36-2.31-1.22-4.49-3.53-4.85c-2.31-0.36-4.49,1.22-4.85,3.53
							c-0.36,2.31,1.22,4.49,3.53,4.85C540.41,316.55,542.58,314.97,542.95,312.66z"/>
						<path class="st0" d="M534.91,309.86c0.02-0.13,0.6-0.16,1.29-0.05c0.69,0.11,1.23,0.31,1.21,0.44
							c-0.02,0.13-0.6,0.16-1.29,0.05C535.43,310.19,534.89,310,534.91,309.86z"/>
						<path class="st0" d="M537.92,311.68c0.02-0.14-0.07-0.27-0.21-0.29c-0.14-0.02-0.27,0.07-0.29,0.21
							c-0.02,0.14,0.07,0.27,0.21,0.29C537.77,311.92,537.9,311.82,537.92,311.68z"/>
					</g>
					<path class="st20" d="M542.15,310.17l-20.95,2.29c-1.76,0.19-3.36-1.09-3.55-2.85l-0.37-3.38c-0.19-1.76,1.09-3.36,2.85-3.55
						l20.95-2.29c1.76-0.19,3.36,1.09,3.55,2.85l0.37,3.38C545.2,308.38,543.91,309.98,542.15,310.17z"/>
					<path class="st22" d="M526.86,305.39l16.64-1.82c1.52-0.17,2.63-1.55,2.47-3.07l-0.05-0.44c-0.17-1.52-1.55-2.63-3.07-2.47
						l-16.64,1.82c-1.52,0.17-2.63,1.55-2.47,3.07l0.05,0.44C523.95,304.45,525.33,305.56,526.86,305.39z"/>
				</g>
				<g>
					<g>
						<path class="st20" d="M490.43,333.41l-0.32,0c-4.7,0.05-8.58-3.75-8.62-8.45l0-0.32c-0.04-4.69,3.77-8.57,8.46-8.62l0.32,0
							c4.7-0.05,8.58,3.75,8.62,8.45l0,0.32C498.93,329.49,495.13,333.37,490.43,333.41z"/>
						<path class="st21" d="M490.3,328.81l-0.15,0c-2.21,0.02-4.04-1.77-4.06-3.98l0-0.15c-0.02-2.21,1.77-4.04,3.98-4.06l0.15,0
							c2.21-0.02,4.04,1.77,4.06,3.98l0,0.15C494.31,326.96,492.51,328.79,490.3,328.81z"/>
					</g>
				</g>
			</g>
			<path class="st22" d="M500.62,245.1c-8.21,1.95-16.16,4.61-19.67,5.84c-1.04,0.36-2.08,0.71-3.13,1.03
				c-10.81,3.32-17.46,10.8-16.77,21.77l0.25,3.96c0.3,4.67,4.1,8.22,8.46,7.9l73.22,4.11c0,0,26.98-1.34,22.79-41
				c-0.8,0.52-12.02,4.13-21.09,5.43c-3.71,0.53-8.73-3.18-13.22-5.96C522.32,242.52,511.08,242.62,500.62,245.1z"/>
		</g>
		<g>
			<path class="st25" d="M594.24,642.28l10.38,5.12c7.66,3.78,10.84,13.15,7.05,20.82l-47.38,95.94c-1.24,2.51-4.31,3.55-6.82,2.31
				l-24.31-12.01l54.26-109.88C588.66,642.08,591.73,641.04,594.24,642.28z"/>
			<g>
				<g>
					<path class="st26" d="M602.67,810.94c-0.17,0.4-0.49,0.69-0.87,0.84c-0.37,0.15-0.8,0.17-1.2,0l-76.48-32.68l-10.17-4.34
						c-1.03-0.44-1.51-1.64-1.07-2.68l5.06-11.85c0.76-1.77,2.09-4.13,3.88-6.26c0.66-0.8,1.39-1.56,2.17-2.26
						c3.21-2.84,7.79-3.48,11.71-1.81l51.44,21.98C602.13,778.28,609.11,795.86,602.67,810.94z"/>
					<path class="st8" d="M600.05,814.59l-88.18-37.06c-1.86-0.78-2.74-2.94-1.96-4.8l0,0c0.78-1.86,2.94-2.74,4.8-1.96l88.18,37.06
						c1.86,0.78,2.74,2.94,1.96,4.8v0C604.07,814.49,601.91,815.37,600.05,814.59z"/>
				</g>
				<path class="st8" d="M561.94,770.3L561.94,770.3c0.75,0.62,1.87,0.47,2.5-0.34l4.1-5.27c0.63-0.81,0.53-1.97-0.22-2.6l0,0
					c-0.75-0.62-1.87-0.47-2.5,0.34l-4.1,5.27C561.09,768.51,561.19,769.68,561.94,770.3z"/>
				<path class="st8" d="M568.55,773.13L568.55,773.13c0.75,0.62,1.87,0.47,2.5-0.34l4.1-5.27c0.63-0.81,0.53-1.97-0.22-2.6l0,0
					c-0.75-0.62-1.87-0.47-2.5,0.34l-4.1,5.27C567.71,771.34,567.81,772.51,568.55,773.13z"/>
				<path class="st8" d="M575.17,775.96L575.17,775.96c0.75,0.62,1.87,0.47,2.5-0.34l4.1-5.27c0.63-0.81,0.53-1.98-0.22-2.6l0,0
					c-0.75-0.62-1.87-0.47-2.5,0.34l-4.1,5.27C574.33,774.17,574.42,775.34,575.17,775.96z"/>
			</g>
			<path class="st26" d="M464.21,619.47v-41.44c0-1.47,1.2-2.67,2.67-2.67h167.32c9.02,0,16.4,7.38,16.4,16.4v8.9
				c0,11.81-9.66,21.47-21.47,21.47H466.87C465.41,622.14,464.21,620.94,464.21,619.47z"/>
			<path class="st20" d="M648.06,654.5l24.44,0.31c2.95,0.04,5.34,2.25,5.3,4.92l-1.56,124.1l-33.96-0.44l-0.06-123.74
				C642.27,656.77,644.89,654.46,648.06,654.5z"/>
			<path class="st26" d="M536.55,740.89l37.38,18.36c1.27,0.62,2.81,0.09,3.44-1.17l68.12-138.7c3.83-7.8,0.58-17.31-7.21-21.14
				l-25.51-12.53c-1.27-0.62-2.81-0.09-3.44,1.17l-73.95,150.57C534.76,738.72,535.29,740.27,536.55,740.89z"/>
			<path class="st18" d="M487.96,627.6v-43.44c0-1.55,1.27-2.81,2.81-2.81h177.61c9.51,0,17.3,7.78,17.3,17.3v9.11
				c0,12.46-10.19,22.65-22.65,22.65H490.77C489.23,630.41,487.96,629.15,487.96,627.6z"/>
			<path class="st18" d="M637.19,765.63l44.18,0.46c1.45,0.02,2.65-1.16,2.67-2.61l1.64-157.59c0.07-6.95-5.56-12.7-12.51-12.78
				l-34.18-0.35c-1.45-0.02-2.65,1.16-2.67,2.61l-1.74,167.59C634.56,764.42,635.74,765.62,637.19,765.63z"/>
			<path class="st18" d="M465.16,630.6h54.62c8.9,0,16.18-11.05,16.18-24.56l-0.55-44.53h-86.45l0.04,44.53
				C448.99,619.55,456.27,630.6,465.16,630.6z"/>
			<path class="st15" d="M445.79,601.55l90.02-20.24c0.78,0.02,1.44-0.81,1.47-1.86l4.25-153.38c0.75-27.08-15.07-49.5-35.35-50.06
				l-29.1,0.36c-17.69-0.49-25.1,17.32-25.75,40.95L445.79,601.55z"/>
			<g>
				<g>
					<path class="st18" d="M729.94,809.18c-0.01,0.43-0.19,0.83-0.47,1.11c-0.29,0.29-0.67,0.46-1.11,0.46l-83.17-0.5l-11.06-0.06
						c-1.12-0.01-2.03-0.93-2.02-2.06l0.08-12.89c0.01-1.92,0.33-4.62,1.15-7.27c0.3-1,0.68-1.98,1.13-2.92
						c1.86-3.86,5.84-6.23,10.09-6.2l55.94,0.33C716.78,779.28,730.03,792.78,729.94,809.18z"/>
					<path class="st27" d="M728.93,813.56h-95.66c-2.02,0-3.67-1.65-3.67-3.67l0,0c0-2.02,1.65-3.67,3.67-3.67h95.66
						c2.02,0,3.67,1.65,3.67,3.67l0,0C732.6,811.91,730.95,813.56,728.93,813.56z"/>
				</g>
				<path class="st0" d="M676.64,787.5L676.64,787.5c0.93,0.28,1.91-0.29,2.18-1.28l1.74-6.45c0.27-0.99-0.28-2.03-1.21-2.31l0,0
					c-0.93-0.28-1.91,0.29-2.18,1.28l-1.74,6.45C675.17,786.18,675.71,787.22,676.64,787.5z"/>
				<path class="st0" d="M683.84,787.55L683.84,787.55c0.93,0.28,1.91-0.29,2.18-1.28l1.74-6.45c0.27-0.99-0.28-2.03-1.21-2.31l0,0
					c-0.93-0.28-1.91,0.29-2.18,1.28l-1.74,6.45C682.37,786.22,682.91,787.26,683.84,787.55z"/>
				<path class="st0" d="M691.04,787.59L691.04,787.59c0.93,0.28,1.91-0.29,2.18-1.28l1.74-6.45c0.27-0.99-0.28-2.03-1.21-2.31l0,0
					c-0.93-0.28-1.91,0.29-2.18,1.28l-1.74,6.45C689.56,786.27,690.11,787.31,691.04,787.59z"/>
			</g>
		</g>
	</g>
	<g>
		<path class="st6" d="M699.7,493.08c-16.45,0.14-30.19,8.32-33.96,19.24c-0.95,2.74,1.98,5.38,5.93,5.34l56.51-0.5
			c3.95-0.03,6.83-2.72,5.83-5.44C730.04,500.87,716.15,492.94,699.7,493.08z"/>
		<path class="st28" d="M688.48,482.37c-15.37,2.27-26.79,14.15-28.4,28.18c-0.41,3.52,2.79,6.41,6.48,5.87l52.77-7.8
			c3.69-0.55,5.91-4.24,4.5-7.49C718.22,488.17,703.85,480.1,688.48,482.37z"/>
		<path class="st20" d="M662.67,516.4l-112.85-10.04l2.54-28.61l133.51,16.66l-7.83,13.89C674.95,513.79,668.94,516.95,662.67,516.4
			z"/>
		<path class="st19" d="M546.37,506.5l13.75-9.49c4.89-3.38,6.13-10.15,2.75-15.04l-62.43-90.4c-3.38-4.89-10.15-6.13-15.04-2.75
			l-2.47,1.7c-11.1,7.66-13.91,23.01-6.24,34.11l54.64,79.12C534.71,508.64,541.48,509.88,546.37,506.5z"/>
		<path class="st19" d="M658.93,490.68l-3.73,32.18c-0.13,1.08-1.11,1.85-2.18,1.71l-13.26-1.75l-7.31-0.97l-8.77-1.15l-7.3-0.97
			l-8.77-1.16l-7.31-0.96l-59.16-7.8c-6.49-0.86-11.2-6.49-10.47-12.52l1.68-13.89c0.73-6.03,6.63-10.26,13.12-9.41l59.68,7.76
			l7.31,0.95l8.78,1.14l7.3,0.95l8.77,1.14l7.31,0.95l12.62,1.64C658.3,488.66,659.05,489.62,658.93,490.68z"/>
		<polygon class="st15" points="644.63,486.89 639.76,522.82 632.45,521.85 637.33,485.94 		"/>
		<polygon class="st15" points="628.55,484.79 623.67,520.7 616.38,519.74 621.25,483.85 		"/>
		<polygon class="st15" points="612.47,482.71 607.6,518.58 600.29,517.62 605.16,481.75 		"/>
	</g>
	<g>
		<path class="st17" d="M472.07,661.28h-25.74c-26.56,0-48.09-20.02-48.09-44.71V407.42c0-5.99,5.22-10.84,11.66-10.84h50.52
			c6.44,0,11.66,4.85,11.66,10.84v180.85c0,10.4,6.39,19.88,16.46,24.41l11.15,5.02L472.07,661.28z"/>
		<g>
			<path class="st7" d="M513.79,805.3L513.79,805.3c7.76,0,14.12-6.35,14.12-14.12v-86.5c0-7.76-6.35-14.12-14.12-14.12h0
				c-7.76,0-14.12,6.35-14.12,14.12v86.5C499.67,798.95,506.03,805.3,513.79,805.3z"/>
			<g>
				<g>
					
						<ellipse transform="matrix(0.9871 -0.1602 0.1602 0.9871 -126.0182 80.2646)" class="st6" cx="434.84" cy="821.77" rx="13.4" ry="13.4"/>
				</g>
				<g>
					
						<ellipse transform="matrix(0.7071 -0.7071 0.7071 0.7071 -438.0454 586.0092)" class="st6" cx="488.35" cy="821.77" rx="13.4" ry="13.4"/>
				</g>
				<g>
					
						<ellipse transform="matrix(0.9871 -0.1602 0.1602 0.9871 -124.6362 97.4084)" class="st6" cx="541.87" cy="821.77" rx="13.4" ry="13.4"/>
				</g>
				<g>
					
						<ellipse transform="matrix(0.9871 -0.1602 0.1602 0.9871 -123.9452 105.9802)" class="st6" cx="595.38" cy="821.77" rx="13.4" ry="13.4"/>
				</g>
			</g>
			<g>
				<path class="st7" d="M436.62,816.73h156.53c7.83,0,14.23-6.4,14.23-14.23l0,0c0-7.83-6.4-14.23-14.23-14.23H436.62
					c-7.83,0-14.23,6.4-14.23,14.23l0,0C422.39,810.32,428.79,816.73,436.62,816.73z"/>
			</g>
			<path class="st6" d="M502.79,724.7h21.99c7.8,0,14.18-6.38,14.18-14.18v-55.77c0-7.8-6.38-14.18-14.18-14.18h-21.99
				c-7.8,0-14.18,6.38-14.18,14.18v55.77C488.61,718.31,494.99,724.7,502.79,724.7z"/>
		</g>
		<path class="st6" d="M442,676.44h146.22c6.09,0,11.03-4.94,11.03-11.03v-9.24c0-6.09-4.94-11.03-11.03-11.03H442
			c-6.09,0-11.03,4.94-11.03,11.03v9.24C430.97,671.5,435.91,676.44,442,676.44z"/>
		<path class="st7" d="M565.11,565.21h-96.11c-3.62,0-6.57-2.96-6.57-6.57v-7.39c0-3.62,2.96-6.57,6.57-6.57h96.11
			c3.62,0,6.57,2.96,6.57,6.57v7.39C571.68,562.25,568.72,565.21,565.11,565.21z"/>
		<path class="st16" d="M575.77,571.85h-73.44c-4.37,0-7.94-3.57-7.94-7.94v-17.66c0-4.37,3.57-7.94,7.94-7.94h73.44
			c8.93,0,16.24,7.31,16.24,16.24v1.07C592.01,564.55,584.7,571.85,575.77,571.85z"/>
		<path class="st17" d="M588.53,565.64c-2.98,3.78-7.59,6.22-12.76,6.22h-73.44c-3.78,0-6.96-2.67-7.75-6.22H588.53z"/>
		<path class="st16" d="M609.45,617.7H480.32c-12.88,0-23.32-9.71-23.32-21.68v-188.6c0-5.99-5.22-10.84-11.66-10.84h-50.52
			c-6.44,0-11.66,4.85-11.66,10.84v209.15c0,24.41,21.04,44.25,47.18,44.7c0.92,0.11,1.86,0.18,2.81,0.18h176.28
			c12,0,21.82-9.13,21.82-20.29v-3.17C631.27,626.83,621.45,617.7,609.45,617.7z"/>
	</g>
</g>
</svg>
